<svg width="60px" height="60px" viewBox="0 0 24 24" fill="none" xmlns="http://www.w3.org/2000/svg">
<path d="M12 21H20" stroke="#aaff00" stroke-width="1.5" stroke-linecap="round" stroke-linejoin="round"/>
<path d="M18.6001 6.39993L11.5292 13.4708C11.2612 13.7389 10.9262 13.9248 10.5592 13.9938L8.50707 14.3639L8.13697 12.3117C8.06805 11.9447 7.88212 11.6097 7.61408 11.3417L14.685 4.27082C15.0687 3.88705 15.6987 3.88705 16.0824 4.27082L18.6001 6.39993C18.9839 6.7837 18.9839 7.4136 18.6001 7.79737L18.6001 6.39993Z" stroke="#aaff00" stroke-width="1.5" stroke-linecap="round" stroke-linejoin="round"/>
<path d="M7.61408 11.3417L4.35414 14.8693C3.59385 15.6886 3.73886 16.9634 4.69894 17.5857L6.46337 18.7362C7.42345 19.3585 8.78546 19.1417 9.54575 18.3224L12.8057 14.7948L7.61408 11.3417Z" fill="#aaff00" stroke="#aaff00" stroke-width="1.5" stroke-linecap="round" stroke-linejoin="round"/>
</svg>